<?xml version="1.0" encoding="iso-8859-1"?>
<!-- Generator: Adobe Illustrator 19.0.0, SVG Export Plug-In . SVG Version: 6.00 Build 0)  -->
<svg xmlns="http://www.w3.org/2000/svg" xmlns:xlink="http://www.w3.org/1999/xlink" version="1.1" id="Layer_1" x="0px" y="0px" viewBox="0 0 511.999 511.999" style="enable-background:new 0 0 511.999 511.999;" xml:space="preserve" width="512px" height="512px">
<g>
	<g>
		<path d="M161.252,134.555l-0.194-0.194c-4.838-4.836-12.678-4.836-17.517,0c-4.836,4.836-4.836,12.679,0,17.517l0.196,0.194    c2.419,2.419,5.588,3.628,8.758,3.628c3.169,0,6.339-1.209,8.758-3.628C166.089,147.235,166.089,139.392,161.252,134.555z" fill="#ecf0f1"/>
	</g>
</g>
<g>
	<g>
		<path d="M199.872,437.688c-60.941,0-110.521-54.741-110.521-122.026c0-34.049,18.029-81.136,50.766-132.589    c3.672-5.772,1.971-13.426-3.8-17.098c-5.773-3.675-13.428-1.969-17.098,3.801c-35.745,56.179-54.639,106.625-54.639,145.886    c0,80.944,60.692,146.797,135.291,146.797c6.839,0,12.385-5.545,12.385-12.385S206.713,437.688,199.872,437.688z" fill="#ecf0f1"/>
	</g>
</g>
<g>
	<g>
		<path d="M375.226,80.478c-4.799-4.593-12.364-4.581-17.152,0.022c-1.972,1.897-21.539,20.908-44.426,49.266    C265.567,58.443,210.891,5.789,208.438,3.438c-4.798-4.592-12.365-4.584-17.152,0.021c-1.791,1.724-44.373,42.889-87.615,101.715    C44.86,185.178,15.04,255.995,15.04,315.66c0,108.262,82.915,196.339,184.833,196.339c58.299,0,112.957-29.201,147.825-78.507    c6.193,0.961,12.523,1.468,18.963,1.468c71.847,0,130.299-61.981,130.299-138.167C496.961,198.13,380.195,85.235,375.226,80.478z     M199.873,487.23c-88.259,0-160.062-76.965-160.062-171.568c0-113.226,125.752-250.398,160.089-285.736    c17.996,18.412,61.01,64.554,97.777,120.558c-7.673,10.447-15.348,21.693-22.55,33.473c-23.271,37.85-36.134,72.392-38.39,103.16    c-0.019,0.243-0.038,0.484-0.054,0.727c-0.082,1.203-0.145,2.398-0.194,3.588c-0.014,0.331-0.033,0.663-0.045,0.993    c-0.049,1.465-0.081,2.923-0.081,4.371c0,1.84,0.045,3.67,0.113,5.494c0.009,0.237,0.015,0.473,0.026,0.71    c0.078,1.874,0.193,3.737,0.342,5.591c0.002,0.035,0.006,0.069,0.009,0.105c1.294,16.018,5.172,31.264,11.196,45.265    c0.011,0.025,0.022,0.048,0.032,0.073c0.635,1.474,1.298,2.93,1.98,4.376c0.28,0.597,0.565,1.191,0.853,1.785    c0.467,0.956,0.945,1.906,1.432,2.849c3.789,7.364,8.198,14.391,13.231,20.945c10.748,13.994,23.969,25.548,38.733,34.101    c0.15,0.087,0.3,0.176,0.451,0.263c0.791,0.455,1.587,0.9,2.387,1.338c0.295,0.161,0.592,0.318,0.888,0.477    c1.326,0.711,2.663,1.397,4.012,2.058c0.384,0.188,0.764,0.381,1.149,0.567c0.65,0.311,1.307,0.612,1.962,0.912    c0.52,0.238,1.042,0.473,1.565,0.705c0.632,0.279,1.265,0.556,1.9,0.825c0.627,0.265,1.258,0.518,1.89,0.773    c0.482,0.192,0.959,0.4,1.444,0.588C291.68,464.834,247.107,487.23,199.873,487.23z M366.661,410.19    c-7.727,0-15.259-0.905-22.518-2.607c-1.106-0.259-2.205-0.535-3.297-0.83c-0.448-0.121-0.894-0.248-1.34-0.375    c-0.928-0.265-1.848-0.545-2.764-0.836c-0.462-0.147-0.925-0.29-1.385-0.443c-1.018-0.341-2.026-0.701-3.031-1.074    c-0.524-0.194-1.045-0.391-1.566-0.593c-0.976-0.38-1.945-0.773-2.906-1.183c-0.503-0.214-1.001-0.437-1.5-0.66    c-0.831-0.37-1.658-0.752-2.478-1.144c-0.534-0.255-1.064-0.516-1.593-0.78c-0.855-0.429-1.703-0.866-2.545-1.318    c-0.326-0.175-0.654-0.344-0.977-0.523c-1.101-0.607-2.189-1.235-3.266-1.881c-0.23-0.137-0.462-0.276-0.691-0.416    c-1.178-0.718-2.342-1.456-3.49-2.222c-0.048-0.032-0.098-0.066-0.146-0.098c-27.753-18.572-46.657-50.526-49.627-86.469    c-0.001-0.021-0.004-0.042-0.005-0.064c-0.129-1.562-0.223-3.132-0.291-4.708c-0.007-0.177-0.012-0.354-0.019-0.531    c-0.059-1.539-0.095-3.085-0.095-4.637c0-1.355,0.035-2.716,0.089-4.082c0.014-0.353,0.035-0.708,0.052-1.063    c0.055-1.099,0.123-2.201,0.211-3.306c0.022-0.279,0.043-0.557,0.067-0.837c3.112-35.765,23.36-74.39,44.732-106.098    c22.493-33.271,47.571-60.937,60.396-74.352c26.554,27.658,105.508,116.098,105.508,189.736    C472.19,359.321,424.849,410.19,366.661,410.19z" fill="#ecf0f1"/>
	</g>
</g>
<g>
	<g>
		<path d="M359.763,184.809c-0.162-0.793-0.396-1.573-0.706-2.316s-0.695-1.474-1.139-2.143c-0.446-0.669-0.966-1.313-1.536-1.883    c-0.57-0.57-1.214-1.078-1.883-1.536c-0.682-0.446-1.401-0.83-2.143-1.139c-0.742-0.31-1.523-0.545-2.316-0.706    c-1.598-0.322-3.245-0.322-4.843,0c-0.793,0.161-1.573,0.396-2.316,0.706c-0.743,0.31-1.461,0.694-2.141,1.139    c-0.669,0.458-1.314,0.966-1.884,1.536c-0.57,0.57-1.09,1.214-1.535,1.883c-0.446,0.669-0.83,1.4-1.139,2.143    s-0.545,1.523-0.706,2.316s-0.235,1.61-0.235,2.415c0,0.817,0.076,1.622,0.235,2.428c0.161,0.793,0.396,1.573,0.706,2.316    c0.31,0.743,0.694,1.461,1.139,2.143c0.445,0.669,0.965,1.3,1.535,1.883c0.57,0.57,1.214,1.078,1.884,1.536    c0.681,0.446,1.4,0.83,2.141,1.139c0.744,0.31,1.523,0.545,2.316,0.706c0.805,0.161,1.61,0.235,2.427,0.235    c0.805,0,1.611-0.074,2.415-0.235c0.793-0.161,1.574-0.396,2.316-0.706c0.742-0.31,1.461-0.694,2.143-1.139    c0.668-0.458,1.313-0.966,1.883-1.536c0.57-0.582,1.09-1.214,1.536-1.883c0.445-0.681,0.83-1.4,1.139-2.143    s0.544-1.523,0.706-2.316c0.161-0.805,0.246-1.61,0.246-2.428C360.01,186.42,359.924,185.602,359.763,184.809z" fill="#ecf0f1"/>
	</g>
</g>
<g>
	<g>
		<path d="M366.661,360.649c-30.872,0-55.987-28.645-55.987-63.855c0-17.487,8.542-41.262,24.705-68.753    c3.467-5.897,1.496-13.488-4.401-16.953c-5.898-3.468-13.489-1.496-16.954,4.401c-18.659,31.74-28.121,59.097-28.121,81.306    c0,48.869,36.227,88.626,80.757,88.626c6.839,0,12.385-5.545,12.385-12.385C379.046,366.194,373.501,360.649,366.661,360.649z" fill="#ecf0f1"/>
	</g>
</g>
<g>
</g>
<g>
</g>
<g>
</g>
<g>
</g>
<g>
</g>
<g>
</g>
<g>
</g>
<g>
</g>
<g>
</g>
<g>
</g>
<g>
</g>
<g>
</g>
<g>
</g>
<g>
</g>
<g>
</g>
</svg>
