<?xml version="1.0" encoding="iso-8859-1"?>
<!-- Generator: Adobe Illustrator 18.1.1, SVG Export Plug-In . SVG Version: 6.00 Build 0)  -->
<svg xmlns="http://www.w3.org/2000/svg" xmlns:xlink="http://www.w3.org/1999/xlink" version="1.1" id="Capa_1" x="0px" y="0px" viewBox="0 0 16.819 16.819" style="enable-background:new 0 0 16.819 16.819;" xml:space="preserve" width="512px" height="512px">
<g>
	<g>
		<path d="M11.639,0.205c-1.368,0-2.676,0.544-3.644,1.503C7.679,1.624,7.356,1.582,7.033,1.582    c-1.146,0-2.22,0.514-2.94,1.391C3.995,2.964,3.898,2.96,3.804,2.96C1.706,2.96,0,4.667,0,6.765c0,1.963,1.472,3.592,3.424,3.785    h6.758c0.008,0.001,0.014,0.005,0.021,0.005h1.015h0.003h0.201c0.001,0,0.001-0.001,0.001-0.001l0.521,0.001l0.019-0.001    c2.724-0.17,4.856-2.439,4.856-5.166C16.82,2.531,14.497,0.205,11.639,0.205z M11.909,9.402H11.43    c-0.003,0-0.005-0.002-0.008-0.002h-0.201h-0.003h-1.015c-0.002,0-0.002,0-0.002,0h-6.69C2.164,9.253,1.153,8.125,1.153,6.764    c0-1.462,1.189-2.652,2.651-2.652c0.14,0,0.288,0.014,0.453,0.042l0.368,0.063l0.208-0.309c0.67-0.996,1.97-1.438,3.132-1.002    l0.374,0.141l0.263-0.302c0.768-0.882,1.875-1.387,3.038-1.387c2.222,0,4.028,1.808,4.028,4.029    C15.667,7.501,14.018,9.261,11.909,9.402z" fill="#ecf0f1"/>
		<path d="M9.652,12.345c-0.144,0.418,0.044,0.86,0.417,0.987c0.373,0.128,0.792-0.107,0.936-0.525    c0.143-0.418-0.303-1.323-0.303-1.323S9.794,11.927,9.652,12.345z" fill="#ecf0f1"/>
		<path d="M3.036,12.318c-0.189,0.554,0.058,1.138,0.552,1.308c0.494,0.168,1.048-0.143,1.237-0.696    c0.189-0.553-0.4-1.751-0.4-1.751S3.225,11.765,3.036,12.318z" fill="#ecf0f1"/>
		<path d="M6.684,13.327c-0.137,0.399-0.001,0.807,0.302,0.911c0.305,0.104,0.662-0.136,0.798-0.535    S7.59,12.472,7.59,12.472S6.82,12.927,6.684,13.327z" fill="#ecf0f1"/>
		<path d="M4.915,15.68c-0.136,0.398,0,0.807,0.303,0.91c0.304,0.104,0.661-0.136,0.797-0.534    c0.137-0.4-0.194-1.231-0.194-1.231S5.052,15.28,4.915,15.68z" fill="#ecf0f1"/>
	</g>
</g>
<g>
</g>
<g>
</g>
<g>
</g>
<g>
</g>
<g>
</g>
<g>
</g>
<g>
</g>
<g>
</g>
<g>
</g>
<g>
</g>
<g>
</g>
<g>
</g>
<g>
</g>
<g>
</g>
<g>
</g>
</svg>
